# xmcd
#
# Track frame offsets:
#	150
#	11390
#	19678
#	35998
#	45950
#	60743
#	70786
#	80335
#	91765
#	104127
#	118579
#	129209
#	142482
#	152624
#
# Disc length: 2185 seconds
# Revision: 1
# Processed by: cddbd v1.5.2PL0 Copyright (c) Steve Scherf et al.
# Submitted via: dBpowerAMP V12.0
#
DISCID=b508870e
DTITLE=Various Artist - The Ultimate Country Collection [Cd 1]
DYEAR=2001
DGENRE=Country
TTITLE0=Hank Locklin - Send Me The Pillow That You Dream On
TTITLE1=Johnny Cash - Country Boy
TTITLE2=Ricky Nelson - Garden Party
TTITLE3=Faron Young - Hello Walls
TTITLE4=Jeannie C. Riley - Harper Valley
TTITLE5=Leroy Van Dyke - Walk On By
TTITLE6=Ned Miller - From A Jack To A King
TTITLE7=David Allan Coe - Got You On My Mind
TTITLE8=Charley Pride - Help Me Make It Trought The Night
TTITLE9=Loretta Lynn - The Coal Miner's Daughter
TTITLE10=Ferlin Husky - Wings Of A Dove
TTITLE11=Patti Page - Tennessee Waltz
TTITLE12=Dolly Parton - Release Me
TTITLE13=Willie Nelson - What A Way To Live
EXTD=
EXTT0=
EXTT1=
EXTT2=
EXTT3=
EXTT4=
EXTT5=
EXTT6=
EXTT7=
EXTT8=
EXTT9=
EXTT10=
EXTT11=
EXTT12=
EXTT13=
PLAYORDER=
